<svg width="18" height="30" viewBox="0 0 18 30" fill="none" xmlns="http://www.w3.org/2000/svg">
<path d="M11.08 30H6.28349C5.48232 30 4.8306 29.3472 4.8306 28.5448V17.7086H2.03223C1.23106 17.7086 0.579346 17.0556 0.579346 16.2534V11.61C0.579346 10.8076 1.23106 10.1548 2.03223 10.1548H4.8306V7.82959C4.8306 5.52406 5.55339 3.56255 6.92058 2.15744C8.29395 0.745926 10.2132 0 12.4709 0L16.129 0.0059509C16.9288 0.00732422 17.5793 0.660095 17.5793 1.46118V5.7724C17.5793 6.57486 16.9279 7.22763 16.1269 7.22763L13.664 7.22855C12.9129 7.22855 12.7216 7.37938 12.6807 7.42561C12.6133 7.50229 12.5331 7.71904 12.5331 8.31757V10.1546H15.9418C16.1984 10.1546 16.4471 10.218 16.6607 10.3374C17.1216 10.5954 17.4082 11.0831 17.4082 11.6103L17.4064 16.2536C17.4064 17.0556 16.7546 17.7084 15.9535 17.7084H12.5331V28.5448C12.5331 29.3472 11.8811 30 11.08 30V30ZM6.5865 28.2413H10.777V16.9212C10.777 16.3854 11.2123 15.9496 11.747 15.9496H15.6505L15.6521 11.9135H11.7468C11.2121 11.9135 10.777 11.4777 10.777 10.9419V8.31757C10.777 7.63046 10.8467 6.84906 11.3645 6.26175C11.9901 5.55176 12.9762 5.46982 13.6635 5.46982L15.8235 5.4689V1.76422L12.4696 1.75873C8.84123 1.75873 6.5865 4.08508 6.5865 7.82959V10.9419C6.5865 11.4775 6.15141 11.9135 5.61669 11.9135H2.33524V15.9496H5.61669C6.15141 15.9496 6.5865 16.3854 6.5865 16.9212V28.2413ZM16.1255 1.76468H16.1258H16.1255Z" fill="white"/>
</svg>
