<svg width="31" height="31" viewBox="0 0 31 31" fill="none" xmlns="http://www.w3.org/2000/svg">
<path d="M22.0711 0.511719H8.53368C4.1278 0.511719 0.543457 4.09606 0.543457 8.50194V22.0396C0.543457 26.4453 4.1278 30.0296 8.53368 30.0296H22.0713C26.477 30.0296 30.0613 26.4453 30.0613 22.0396V8.50194C30.0613 4.09606 26.477 0.511719 22.0711 0.511719V0.511719ZM28.3309 22.0396C28.3309 25.4911 25.5228 28.2991 22.0711 28.2991H8.53368C5.08199 28.2991 2.27392 25.4911 2.27392 22.0396V8.50194C2.27392 5.05025 5.08199 2.24218 8.53368 2.24218H22.0713C25.5228 2.24218 28.3309 5.05025 28.3309 8.50194V22.0396Z" fill="white"/>
<path d="M15.3024 7.19971C10.8519 7.19971 7.23132 10.8203 7.23132 15.2708C7.23132 19.7213 10.8519 23.3419 15.3024 23.3419C19.7529 23.3419 23.3735 19.7213 23.3735 15.2708C23.3735 10.8203 19.7529 7.19971 15.3024 7.19971V7.19971ZM15.3024 21.6114C11.8063 21.6114 8.96179 18.7671 8.96179 15.2708C8.96179 11.7747 11.8063 8.93017 15.3024 8.93017C18.7987 8.93017 21.643 11.7747 21.643 15.2708C21.643 18.7671 18.7987 21.6114 15.3024 21.6114V21.6114Z" fill="white"/>
<path d="M23.5664 4.33325C22.2512 4.33325 21.1815 5.40319 21.1815 6.71816C21.1815 8.03335 22.2512 9.10329 23.5664 9.10329C24.8816 9.10329 25.9516 8.03335 25.9516 6.71816C25.9516 5.40297 24.8816 4.33325 23.5664 4.33325ZM23.5664 7.3726C23.2056 7.3726 22.912 7.07894 22.912 6.71816C22.912 6.35716 23.2056 6.06372 23.5664 6.06372C23.9274 6.06372 24.2211 6.35716 24.2211 6.71816C24.2211 7.07894 23.9274 7.3726 23.5664 7.3726Z" fill="white"/>
</svg>
