<svg width="47" height="47" viewBox="0 0 47 47" fill="none" xmlns="http://www.w3.org/2000/svg">
<path d="M16.7735 7.18579C11.2695 7.18579 6.7915 11.6624 6.7915 17.1648C6.7915 22.6673 11.2695 27.144 16.7735 27.144C22.2776 27.144 26.7555 22.6674 26.7555 17.1648C26.7555 11.6624 22.2776 7.18579 16.7735 7.18579ZM16.7735 25.3869C12.2384 25.3869 8.54905 21.6985 8.54905 17.1648C8.54905 12.6313 12.2384 8.94278 16.7735 8.94278C21.3085 8.94278 24.9979 12.6313 24.9979 17.1648C24.9979 21.6984 21.3085 25.3869 16.7735 25.3869Z" fill="white"/>
<path d="M16.7747 0.625488C16.2887 0.625488 15.895 1.01879 15.895 1.50404V4.9632C15.895 5.44854 16.2889 5.84185 16.7747 5.84185C17.2607 5.84185 17.6545 5.44854 17.6545 4.9633V1.50404C17.6545 1.01889 17.2607 0.625488 16.7747 0.625488Z" fill="white"/>
<path d="M28.4724 5.46976C28.129 5.12662 27.5727 5.12662 27.2294 5.46976L24.7826 7.91587C24.4394 8.25902 24.4394 8.81515 24.7826 9.15819C24.9541 9.32983 25.179 9.41558 25.404 9.41558C25.6289 9.41558 25.8538 9.32983 26.0254 9.15819L28.4722 6.71208C28.8155 6.36904 28.8155 5.81281 28.4724 5.46976Z" fill="white"/>
<path d="M8.76492 25.1713C8.42161 24.8284 7.86527 24.8282 7.52195 25.1713L5.07501 27.6174C4.73169 27.9606 4.73169 28.5168 5.07487 28.86C5.24667 29.0316 5.47141 29.1173 5.69643 29.1173C5.92131 29.1173 6.14619 29.0316 6.31771 28.86L8.76465 26.4138C9.10797 26.0707 9.10797 25.5144 8.76492 25.1713Z" fill="white"/>
<path d="M32.4393 16.2864H28.9788C28.4936 16.2864 28.1001 16.6796 28.1001 17.165C28.1001 17.65 28.4933 18.0435 28.9788 18.0435H32.4393C32.9247 18.0435 33.3181 17.6501 33.3181 17.165C33.318 16.6796 32.9246 16.2864 32.4393 16.2864Z" fill="white"/>
<path d="M4.56848 16.2864H1.10827C0.622799 16.2864 0.229431 16.6796 0.229431 17.165C0.229431 17.65 0.622799 18.0435 1.10827 18.0435H4.56848C5.05409 18.0435 5.44732 17.6501 5.44732 17.165C5.44732 16.6796 5.05409 16.2864 4.56848 16.2864Z" fill="white"/>
<path d="M8.76498 7.91594L6.31804 5.46993C5.975 5.12679 5.41852 5.12698 5.07534 5.46993C4.73202 5.81308 4.73202 6.36931 5.07548 6.71246L7.52228 9.15857C7.6938 9.33008 7.91868 9.41596 8.14356 9.41596C8.36844 9.41596 8.59332 9.33019 8.76512 9.15857C9.10816 8.81531 9.10816 8.25908 8.76498 7.91594Z" fill="white"/>
<path d="M28.4724 27.6175L26.0256 25.1715C25.6824 24.8283 25.126 24.8283 24.7826 25.1715C24.4394 25.5146 24.4394 26.0707 24.7826 26.4138L27.2294 28.8599C27.401 29.0315 27.6259 29.1172 27.8509 29.1172C28.0758 29.1172 28.3007 29.0315 28.4724 28.8599C28.8157 28.5168 28.8157 27.9606 28.4724 27.6175Z" fill="white"/>
<path d="M39.8049 45.75L40.049 43.971L40.1601 43.161L45.0227 43.8277C45.5034 43.8938 45.9467 43.5576 46.0128 43.0768C46.0787 42.5959 45.7424 42.1529 45.2615 42.087L40.3989 41.4203L41.0009 37.0332L45.8633 37.6999C46.3441 37.7659 46.7875 37.4297 46.8534 36.949C46.9195 36.468 46.583 36.0252 46.1023 35.9591L41.2397 35.2924L41.3508 34.4825L41.5949 32.7034C41.6609 32.2226 41.3245 31.7796 40.8437 31.7137C40.3629 31.6477 39.9195 31.9839 39.8536 32.4647L39.7289 33.3734L35.4284 32.7836C32.6276 32.3996 30.0169 34.1405 29.2291 36.767L21.4879 35.7057C18.9539 35.3582 17.175 33.0145 17.5226 30.4813L17.8036 28.4336C17.8695 27.9528 17.5332 27.5098 17.0523 27.4438C16.5714 27.3779 16.1282 27.714 16.0622 28.1949L15.7813 30.2426C15.3021 33.7357 17.7548 36.9671 21.2489 37.4463L28.9901 38.5078C29.0415 41.2492 31.087 43.6287 33.8877 44.0127L38.1881 44.6024L38.0635 45.511C37.9976 45.9918 38.3339 46.4348 38.8148 46.5008C39.2957 46.5669 39.739 46.2307 39.8049 45.75ZM34.1267 42.2721C31.9899 41.9791 30.4902 40.0029 30.7832 37.8671C31.0762 35.7312 33.053 34.2316 35.1896 34.5247L39.4901 35.1143L38.4272 42.8619L34.1267 42.2723V42.2721Z" fill="white"/>
</svg>
