<svg width="183" height="51" viewBox="0 0 183 51" fill="none" xmlns="http://www.w3.org/2000/svg">
<path d="M14.7328 24.1539C14.7328 23.2386 14.4096 22.5387 13.7634 22.054C13.117 21.5587 11.9537 21.0418 10.2733 20.5034C8.5929 19.9542 7.26258 19.4157 6.28236 18.888C3.61096 17.445 2.27525 15.5014 2.27525 13.0569C2.27525 11.7862 2.63072 10.6555 3.34166 9.66479C4.06336 8.66332 5.09208 7.88259 6.42778 7.32262C7.77425 6.76266 9.2823 6.48267 10.9519 6.48267C12.6323 6.48267 14.1296 6.78958 15.4437 7.40338C16.7578 8.00642 17.7758 8.86253 18.4976 9.9717C19.23 11.0809 19.5962 12.3408 19.5962 13.7515H14.749C14.749 12.6746 14.4096 11.84 13.731 11.2478C13.0524 10.6447 12.0991 10.3432 10.8711 10.3432C9.68624 10.3432 8.76525 10.5963 8.10818 11.1024C7.45109 11.5977 7.12255 12.2546 7.12255 13.0731C7.12255 13.8377 7.50496 14.4783 8.26974 14.9952C9.04531 15.5121 10.1817 15.9968 11.679 16.449C14.4365 17.2782 16.4456 18.3065 17.7058 19.5342C18.9661 20.7618 19.5962 22.291 19.5962 24.1216C19.5962 26.1569 18.826 27.756 17.2858 28.9191C15.7454 30.0712 13.6718 30.6474 11.065 30.6474C9.25537 30.6474 7.60728 30.3189 6.12078 29.662C4.63428 28.9945 3.49785 28.0844 2.7115 26.9323C1.93594 25.7799 1.54816 24.4447 1.54816 22.9263H6.41162C6.41162 25.5215 7.96275 26.8191 11.065 26.8191C12.2176 26.8191 13.117 26.5877 13.7634 26.1245C14.4096 25.6508 14.7328 24.9938 14.7328 24.1539ZM60.7013 26.4315H70.9938V30.3243H55.8541V6.80573H60.7013V26.4315ZM87.3938 25.4785H78.8948L77.2792 30.3243H72.1249L80.8824 6.80573H85.3742L94.1801 30.3243H89.0258L87.3938 25.4785ZM80.2037 21.5533H86.0851L83.1283 12.75L80.2037 21.5533ZM105.086 21.7148H101.225V30.3243H96.3775V6.80573H105.119C107.898 6.80573 110.042 7.42493 111.55 8.66332C113.058 9.90169 113.812 11.6516 113.812 13.9131C113.812 15.5175 113.462 16.8582 112.761 17.935C112.072 19.0012 111.022 19.8518 109.611 20.4872L114.7 30.0981V30.3243H109.498L105.086 21.7148ZM101.225 17.7896H105.135C106.352 17.7896 107.295 17.4828 107.963 16.869C108.63 16.2445 108.964 15.3883 108.964 14.3007C108.964 13.1915 108.647 12.3192 108.011 11.6839C107.386 11.0485 106.422 10.7309 105.119 10.7309H101.225V17.7896ZM139.906 20.1319H130.599V26.4315H141.522V30.3243H125.752V6.80573H141.49V10.7309H130.599V16.336H139.906V20.1319ZM152.784 14.9145L157.195 6.80573H162.769L155.919 18.4681L162.947 30.3243H157.308L152.784 22.0863L148.26 30.3243H142.621L149.65 18.4681L142.799 6.80573H148.373L152.784 14.9145ZM179.557 20.1319H170.25V26.4315H181.173V30.3243H165.402V6.80573H181.14V10.7309H170.25V16.336H179.557V20.1319Z" fill="white"/>
<path d="M37.7735 10.1858C32.2695 10.1858 27.7915 14.6624 27.7915 20.1648C27.7915 25.6673 32.2695 30.144 37.7735 30.144C43.2776 30.144 47.7555 25.6674 47.7555 20.1648C47.7555 14.6624 43.2776 10.1858 37.7735 10.1858ZM37.7735 28.3869C33.2384 28.3869 29.549 24.6985 29.549 20.1648C29.549 15.6313 33.2384 11.9428 37.7735 11.9428C42.3085 11.9428 45.9979 15.6313 45.9979 20.1648C45.9979 24.6984 42.3085 28.3869 37.7735 28.3869Z" fill="white"/>
<path d="M37.7747 3.62549C37.2887 3.62549 36.895 4.01879 36.895 4.50404V7.9632C36.895 8.44854 37.2889 8.84185 37.7747 8.84185C38.2607 8.84185 38.6545 8.44854 38.6545 7.9633V4.50404C38.6545 4.01889 38.2607 3.62549 37.7747 3.62549Z" fill="white"/>
<path d="M49.4724 8.46976C49.129 8.12662 48.5727 8.12662 48.2294 8.46976L45.7826 10.9159C45.4394 11.259 45.4394 11.8152 45.7826 12.1582C45.9541 12.3298 46.179 12.4156 46.404 12.4156C46.6289 12.4156 46.8538 12.3298 47.0254 12.1582L49.4722 9.71208C49.8155 9.36904 49.8155 8.81281 49.4724 8.46976Z" fill="white"/>
<path d="M29.7649 28.1713C29.4216 27.8284 28.8653 27.8282 28.5219 28.1713L26.075 30.6174C25.7317 30.9606 25.7317 31.5168 26.0749 31.86C26.2467 32.0316 26.4714 32.1173 26.6964 32.1173C26.9213 32.1173 27.1462 32.0316 27.3177 31.86L29.7646 29.4138C30.108 29.0707 30.108 28.5144 29.7649 28.1713Z" fill="white"/>
<path d="M53.4393 19.2864H49.9788C49.4936 19.2864 49.1001 19.6796 49.1001 20.165C49.1001 20.65 49.4933 21.0435 49.9788 21.0435H53.4393C53.9247 21.0435 54.3181 20.6501 54.3181 20.165C54.318 19.6796 53.9246 19.2864 53.4393 19.2864Z" fill="white"/>
<path d="M25.5685 19.2864H22.1083C21.6228 19.2864 21.2294 19.6796 21.2294 20.165C21.2294 20.65 21.6228 21.0435 22.1083 21.0435H25.5685C26.0541 21.0435 26.4473 20.6501 26.4473 20.165C26.4473 19.6796 26.0541 19.2864 25.5685 19.2864Z" fill="white"/>
<path d="M29.765 10.9159L27.318 8.46993C26.975 8.12679 26.4185 8.12698 26.0753 8.46993C25.732 8.81308 25.732 9.36931 26.0755 9.71246L28.5223 12.1586C28.6938 12.3301 28.9187 12.416 29.1436 12.416C29.3684 12.416 29.5933 12.3302 29.7651 12.1586C30.1082 11.8153 30.1082 11.2591 29.765 10.9159Z" fill="white"/>
<path d="M49.4724 30.6175L47.0256 28.1715C46.6824 27.8283 46.126 27.8283 45.7826 28.1715C45.4394 28.5146 45.4394 29.0707 45.7826 29.4138L48.2294 31.8599C48.401 32.0315 48.6259 32.1172 48.8509 32.1172C49.0758 32.1172 49.3007 32.0315 49.4724 31.8599C49.8157 31.5168 49.8157 30.9606 49.4724 30.6175Z" fill="white"/>
<path d="M60.8049 48.75L61.049 46.971L61.1601 46.161L66.0227 46.8277C66.5034 46.8938 66.9467 46.5576 67.0128 46.0768C67.0787 45.5959 66.7424 45.1529 66.2615 45.087L61.3989 44.4203L62.0009 40.0332L66.8633 40.6999C67.3441 40.7659 67.7875 40.4297 67.8534 39.949C67.9195 39.468 67.583 39.0252 67.1023 38.9591L62.2397 38.2924L62.3508 37.4825L62.5949 35.7034C62.6609 35.2226 62.3245 34.7796 61.8437 34.7137C61.3629 34.6477 60.9195 34.9839 60.8536 35.4647L60.7289 36.3734L56.4284 35.7836C53.6276 35.3996 51.0169 37.1405 50.2291 39.767L42.4879 38.7057C39.9539 38.3582 38.175 36.0145 38.5226 33.4813L38.8036 31.4336C38.8695 30.9528 38.5332 30.5098 38.0523 30.4438C37.5714 30.3779 37.1282 30.714 37.0622 31.1949L36.7813 33.2426C36.3021 36.7357 38.7548 39.9671 42.2489 40.4463L49.9901 41.5078C50.0415 44.2492 52.087 46.6287 54.8877 47.0127L59.1881 47.6024L59.0635 48.511C58.9976 48.9918 59.3339 49.4348 59.8148 49.5008C60.2957 49.5669 60.739 49.2307 60.8049 48.75ZM55.1267 45.2721C52.9899 44.9791 51.4902 43.0029 51.7832 40.8671C52.0762 38.7312 54.053 37.2316 56.1896 37.5247L60.4901 38.1143L59.4272 45.8619L55.1267 45.2723V45.2721Z" fill="white"/>
<path d="M104.836 3.13551C105.322 3.13551 105.716 2.74217 105.716 2.25697C105.716 1.77175 105.322 1.37842 104.836 1.37842C104.351 1.37842 103.957 1.77175 103.957 2.25697C103.957 2.74217 104.351 3.13551 104.836 3.13551Z" fill="white"/>
<path d="M100.7 3.13551C101.186 3.13551 101.58 2.74217 101.58 2.25697C101.58 1.77175 101.186 1.37842 100.7 1.37842C100.214 1.37842 99.8203 1.77175 99.8203 2.25697C99.8203 2.74217 100.214 3.13551 100.7 3.13551Z" fill="white"/>
</svg>
