<svg width="31" height="22" viewBox="0 0 31 22" fill="none" xmlns="http://www.w3.org/2000/svg">
<path d="M29.8138 0.382026C29.5199 0.0384337 29.0326 -0.0889854 28.5993 0.0639175L1.08045 9.60915C0.530673 9.80094 0.144779 10.266 0.0731387 10.8229C0.00218545 11.3772 0.256702 11.915 0.734148 12.2245L4.6677 14.8019C5.04879 15.0517 5.53883 15.0785 5.94692 14.8718L14.4796 10.5529L7.82947 15.3191C7.51728 15.5429 7.33074 15.8999 7.33074 16.2738V20.6887C7.33074 21.1441 7.59098 21.5613 8.00983 21.7779C8.42937 21.9945 8.93611 21.973 9.3346 21.7208L12.3231 19.8181L15.2619 21.7414C15.5194 21.9108 15.8261 22 16.1356 22C16.2402 22 16.3452 21.9897 16.4487 21.969C16.8614 21.8864 17.2264 21.6417 17.4505 21.2977L29.901 1.59207C30.1434 1.21267 30.1086 0.727156 29.8138 0.382026V0.382026ZM16.0699 20.2271L13.0265 18.2352C12.8147 18.0964 12.5708 18.0269 12.327 18.0269C12.0885 18.0269 11.8498 18.0935 11.6408 18.2266L9.08946 19.851V16.523L20.8322 8.10692C21.3566 7.73103 21.4887 7.04693 21.1392 6.51572C20.7894 5.98451 20.0893 5.80503 19.5104 6.09809L5.40218 13.2391L2.07516 11.0591L27.4162 2.26937L16.0699 20.2271Z" fill="white"/>
</svg>
