<svg width="30" height="30" viewBox="0 0 30 30" fill="none" xmlns="http://www.w3.org/2000/svg">
<path d="M25.3867 4.25024C22.6829 1.54644 19.0889 0.0576172 15.2649 0.0576172C15.2647 0.0576172 15.2638 0.0576172 15.2636 0.0576172C13.3723 0.0578424 11.5292 0.424024 9.78594 1.14625C8.04241 1.86848 6.4804 2.91275 5.14291 4.25024C2.43933 6.95382 0.95051 10.5485 0.95051 14.372C0.95051 16.6522 1.50068 18.9182 2.54315 20.9372L0.137073 27.8109C-0.0325053 28.2957 0.0875284 28.8227 0.451008 29.186C0.705263 29.4404 1.03992 29.5756 1.38403 29.5756C1.53154 29.5756 1.68062 29.5508 1.8261 29.4999L8.69978 27.094C10.7187 28.1365 12.9847 28.6867 15.2649 28.6867C19.0884 28.6867 22.6829 27.1976 25.3867 24.4941C28.0903 21.7905 29.5793 18.1958 29.5793 14.3723C29.5793 10.5485 28.0905 6.95382 25.3867 4.25024V4.25024ZM24.1625 23.2698C21.7859 25.6467 18.6259 26.9553 15.2649 26.9553C13.2088 26.9553 11.1662 26.4468 9.35783 25.4843C9.02993 25.31 8.64235 25.28 8.29441 25.4019L2.04951 27.5875L4.23534 21.3426C4.35717 20.9942 4.32699 20.6066 4.15269 20.2789C3.19039 18.471 2.68165 16.4284 2.68165 14.372C2.68165 11.0111 3.99054 7.85103 6.36712 5.47445C8.74347 3.0981 11.9031 1.78921 15.2638 1.78876H15.2649C18.6261 1.78876 21.7859 3.09765 24.1625 5.47445C26.5393 7.85103 27.8482 11.0109 27.8482 14.372C27.8482 17.7332 26.5393 20.8933 24.1625 23.2698V23.2698Z" fill="white"/>
<path d="M20.5847 15.6508C19.9262 14.9923 18.8547 14.9923 18.1962 15.6508L17.476 16.371C15.6876 15.3966 14.2405 13.9494 13.2658 12.1611L13.986 11.4409C14.6447 10.7824 14.6447 9.71085 13.986 9.05236L12.0452 7.11155C11.3867 6.45305 10.3152 6.45305 9.65666 7.11155L8.1041 8.66411C7.21477 9.55344 7.17041 11.0823 7.97911 12.9693C8.6813 14.6077 9.96631 16.4084 11.5975 18.0396C13.2286 19.6707 15.0294 20.9557 16.6677 21.6579C17.5643 22.0421 18.3797 22.2338 19.0844 22.2338C19.8629 22.2338 20.5061 21.9998 20.9729 21.5329L22.5255 19.9802V19.9804C22.8446 19.6613 23.0203 19.2372 23.0203 18.7861C23.0203 18.3348 22.8446 17.9108 22.5255 17.5919L20.5847 15.6508ZM19.7487 20.3087C19.4949 20.5625 18.7144 20.6515 17.3499 20.0669C15.909 19.4494 14.3008 18.2945 12.8217 16.8154C11.3425 15.3362 10.1879 13.7283 9.57041 12.2874C8.98555 10.9229 9.07451 10.1421 9.32831 9.88831L10.8511 8.36548L12.732 10.2466L11.8306 11.1483C11.4229 11.556 11.3245 12.1741 11.586 12.6867C12.7712 15.0108 14.6262 16.8658 16.9503 18.0511C17.4631 18.3125 18.0813 18.2143 18.4889 17.8065L19.3904 16.905L21.2716 18.7861L19.7487 20.3087Z" fill="white"/>
</svg>
