<svg width="306" height="100" viewBox="0 0 306 100" fill="none" xmlns="http://www.w3.org/2000/svg">
<circle cx="50" cy="50" r="49" stroke="white" stroke-width="2"/>
<path d="M54.068 68.172C54.8 68.172 55.436 68.274 55.976 68.478C56.516 68.67 56.936 68.958 57.236 69.342C57.536 69.714 57.686 70.17 57.686 70.71C57.686 71.298 57.524 71.766 57.2 72.114C56.876 72.45 56.432 72.696 55.868 72.852V72.924C56.252 73.032 56.606 73.182 56.93 73.374C57.254 73.566 57.512 73.818 57.704 74.13C57.908 74.442 58.01 74.844 58.01 75.336C58.01 75.864 57.86 76.344 57.56 76.776C57.272 77.208 56.822 77.55 56.21 77.802C55.61 78.054 54.836 78.18 53.888 78.18C53.432 78.18 52.994 78.156 52.574 78.108C52.166 78.06 51.794 77.988 51.458 77.892C51.134 77.796 50.846 77.682 50.594 77.55V76.128C51.002 76.32 51.482 76.494 52.034 76.65C52.598 76.806 53.21 76.884 53.87 76.884C54.35 76.884 54.782 76.83 55.166 76.722C55.562 76.614 55.874 76.446 56.102 76.218C56.33 75.978 56.444 75.654 56.444 75.246C56.444 74.874 56.342 74.574 56.138 74.346C55.934 74.106 55.628 73.926 55.22 73.806C54.824 73.686 54.314 73.626 53.69 73.626H52.394V72.33H53.438C54.266 72.33 54.926 72.222 55.418 72.006C55.922 71.778 56.174 71.394 56.174 70.854C56.174 70.398 55.982 70.056 55.598 69.828C55.226 69.6 54.686 69.486 53.978 69.486C53.45 69.486 52.982 69.54 52.574 69.648C52.178 69.744 51.74 69.894 51.26 70.098L50.702 68.838C51.218 68.61 51.758 68.442 52.322 68.334C52.886 68.226 53.468 68.172 54.068 68.172ZM64.0082 68.19C65.1842 68.19 66.0542 68.448 66.6182 68.964C67.1822 69.48 67.4642 70.302 67.4642 71.43V78H66.3122L66.0062 76.632H65.9342C65.6582 76.98 65.3702 77.274 65.0702 77.514C64.7822 77.742 64.4462 77.91 64.0622 78.018C63.6902 78.126 63.2342 78.18 62.6942 78.18C62.1182 78.18 61.5962 78.078 61.1282 77.874C60.6722 77.67 60.3122 77.358 60.0482 76.938C59.7842 76.506 59.6522 75.966 59.6522 75.318C59.6522 74.358 60.0302 73.62 60.7862 73.104C61.5422 72.576 62.7062 72.288 64.2782 72.24L65.9162 72.186V71.61C65.9162 70.806 65.7422 70.248 65.3942 69.936C65.0462 69.624 64.5542 69.468 63.9182 69.468C63.4142 69.468 62.9342 69.546 62.4782 69.702C62.0222 69.846 61.5962 70.014 61.2002 70.206L60.7142 69.018C61.1342 68.79 61.6322 68.598 62.2082 68.442C62.7842 68.274 63.3842 68.19 64.0082 68.19ZM64.4762 73.338C63.2762 73.386 62.4422 73.578 61.9742 73.914C61.5182 74.25 61.2902 74.724 61.2902 75.336C61.2902 75.876 61.4522 76.272 61.7762 76.524C62.1122 76.776 62.5382 76.902 63.0542 76.902C63.8702 76.902 64.5482 76.68 65.0882 76.236C65.6282 75.78 65.8982 75.084 65.8982 74.148V73.284L64.4762 73.338ZM78.5981 68.352V78H77.0141V69.702H72.0281V78H70.4441V68.352H78.5981ZM83.1705 74.238C83.1705 74.346 83.1645 74.502 83.1525 74.706C83.1525 74.898 83.1465 75.108 83.1345 75.336C83.1225 75.552 83.1105 75.762 83.0985 75.966C83.0865 76.158 83.0745 76.314 83.0625 76.434L88.2285 68.352H90.1725V78H88.6965V72.312C88.6965 72.12 88.6965 71.868 88.6965 71.556C88.7085 71.244 88.7205 70.938 88.7325 70.638C88.7445 70.326 88.7565 70.092 88.7685 69.936L83.6385 78H81.6765V68.352H83.1705V74.238ZM97.1129 78.18C96.2609 78.18 95.4989 78.006 94.8269 77.658C94.1669 77.31 93.6449 76.77 93.2609 76.038C92.8889 75.306 92.7029 74.37 92.7029 73.23C92.7029 72.042 92.9009 71.076 93.2969 70.332C93.6929 69.588 94.2269 69.042 94.8989 68.694C95.5829 68.346 96.3569 68.172 97.2209 68.172C97.7129 68.172 98.1869 68.226 98.6429 68.334C99.0989 68.43 99.4709 68.55 99.7589 68.694L99.2729 70.008C98.9849 69.9 98.6489 69.798 98.2649 69.702C97.8809 69.606 97.5209 69.558 97.1849 69.558C96.5369 69.558 96.0029 69.696 95.5829 69.972C95.1629 70.248 94.8509 70.656 94.6469 71.196C94.4429 71.736 94.3409 72.408 94.3409 73.212C94.3409 73.98 94.4429 74.634 94.6469 75.174C94.8509 75.714 95.1569 76.122 95.5649 76.398C95.9729 76.674 96.4829 76.812 97.0949 76.812C97.6229 76.812 98.0849 76.758 98.4809 76.65C98.8889 76.542 99.2609 76.41 99.5969 76.254V77.658C99.2729 77.826 98.9129 77.952 98.5169 78.036C98.1329 78.132 97.6649 78.18 97.1129 78.18ZM105.545 68.19C106.721 68.19 107.591 68.448 108.155 68.964C108.719 69.48 109.001 70.302 109.001 71.43V78H107.849L107.543 76.632H107.471C107.195 76.98 106.907 77.274 106.607 77.514C106.319 77.742 105.983 77.91 105.599 78.018C105.227 78.126 104.771 78.18 104.231 78.18C103.655 78.18 103.133 78.078 102.665 77.874C102.209 77.67 101.849 77.358 101.585 76.938C101.321 76.506 101.189 75.966 101.189 75.318C101.189 74.358 101.567 73.62 102.323 73.104C103.079 72.576 104.243 72.288 105.815 72.24L107.453 72.186V71.61C107.453 70.806 107.279 70.248 106.931 69.936C106.583 69.624 106.091 69.468 105.455 69.468C104.951 69.468 104.471 69.546 104.015 69.702C103.559 69.846 103.133 70.014 102.737 70.206L102.251 69.018C102.671 68.79 103.169 68.598 103.745 68.442C104.321 68.274 104.921 68.19 105.545 68.19ZM106.013 73.338C104.813 73.386 103.979 73.578 103.511 73.914C103.055 74.25 102.827 74.724 102.827 75.336C102.827 75.876 102.989 76.272 103.313 76.524C103.649 76.776 104.075 76.902 104.591 76.902C105.407 76.902 106.085 76.68 106.625 76.236C107.165 75.78 107.435 75.084 107.435 74.148V73.284L106.013 73.338ZM118.641 69.684H115.491V78H113.925V69.684H110.811V68.352H118.641V69.684ZM124.988 72.312C125.828 72.312 126.524 72.414 127.076 72.618C127.628 72.822 128.042 73.128 128.318 73.536C128.606 73.932 128.75 74.436 128.75 75.048C128.75 75.648 128.612 76.17 128.336 76.614C128.072 77.058 127.658 77.4 127.094 77.64C126.53 77.88 125.804 78 124.916 78H120.542V68.352H122.126V72.312H124.988ZM127.166 75.138C127.166 74.55 126.956 74.154 126.536 73.95C126.128 73.734 125.552 73.626 124.808 73.626H122.126V76.722H124.844C125.516 76.722 126.068 76.602 126.5 76.362C126.944 76.122 127.166 75.714 127.166 75.138ZM135.099 78.18C134.247 78.18 133.485 78.006 132.813 77.658C132.153 77.31 131.631 76.77 131.247 76.038C130.875 75.306 130.689 74.37 130.689 73.23C130.689 72.042 130.887 71.076 131.283 70.332C131.679 69.588 132.213 69.042 132.885 68.694C133.569 68.346 134.343 68.172 135.207 68.172C135.699 68.172 136.173 68.226 136.629 68.334C137.085 68.43 137.457 68.55 137.745 68.694L137.259 70.008C136.971 69.9 136.635 69.798 136.251 69.702C135.867 69.606 135.507 69.558 135.171 69.558C134.523 69.558 133.989 69.696 133.569 69.972C133.149 70.248 132.837 70.656 132.633 71.196C132.429 71.736 132.327 72.408 132.327 73.212C132.327 73.98 132.429 74.634 132.633 75.174C132.837 75.714 133.143 76.122 133.551 76.398C133.959 76.674 134.469 76.812 135.081 76.812C135.609 76.812 136.071 76.758 136.467 76.65C136.875 76.542 137.247 76.41 137.583 76.254V77.658C137.259 77.826 136.899 77.952 136.503 78.036C136.119 78.132 135.651 78.18 135.099 78.18ZM140.472 78H138.636L141.39 73.95C141.018 73.854 140.658 73.704 140.31 73.5C139.962 73.284 139.68 72.99 139.464 72.618C139.248 72.234 139.14 71.76 139.14 71.196C139.14 70.272 139.452 69.57 140.076 69.09C140.7 68.598 141.528 68.352 142.56 68.352H146.88V78H145.296V74.166H142.956L140.472 78ZM140.67 71.214C140.67 71.766 140.874 72.18 141.282 72.456C141.702 72.72 142.284 72.852 143.028 72.852H145.296V69.666H142.722C141.99 69.666 141.462 69.81 141.138 70.098C140.826 70.386 140.67 70.758 140.67 71.214ZM156.192 68.352V72.366H161.43V68.352H163.014V78H161.43V73.698H156.192V78H154.608V68.352H156.192ZM169.723 68.19C170.899 68.19 171.769 68.448 172.333 68.964C172.897 69.48 173.179 70.302 173.179 71.43V78H172.027L171.721 76.632H171.649C171.373 76.98 171.085 77.274 170.785 77.514C170.497 77.742 170.161 77.91 169.777 78.018C169.405 78.126 168.949 78.18 168.409 78.18C167.833 78.18 167.311 78.078 166.843 77.874C166.387 77.67 166.027 77.358 165.763 76.938C165.499 76.506 165.367 75.966 165.367 75.318C165.367 74.358 165.745 73.62 166.501 73.104C167.257 72.576 168.421 72.288 169.993 72.24L171.631 72.186V71.61C171.631 70.806 171.457 70.248 171.109 69.936C170.761 69.624 170.269 69.468 169.633 69.468C169.129 69.468 168.649 69.546 168.193 69.702C167.737 69.846 167.311 70.014 166.915 70.206L166.429 69.018C166.849 68.79 167.347 68.598 167.923 68.442C168.499 68.274 169.099 68.19 169.723 68.19ZM170.191 73.338C168.991 73.386 168.157 73.578 167.689 73.914C167.233 74.25 167.005 74.724 167.005 75.336C167.005 75.876 167.167 76.272 167.491 76.524C167.827 76.776 168.253 76.902 168.769 76.902C169.585 76.902 170.263 76.68 170.803 76.236C171.343 75.78 171.613 75.084 171.613 74.148V73.284L170.191 73.338ZM186.541 68.352H188.269L184.147 72.996L188.611 78H186.775L182.419 73.104V78H180.835V68.352H182.419V73.032L186.541 68.352ZM198.398 73.158C198.398 73.962 198.29 74.676 198.074 75.3C197.87 75.912 197.57 76.434 197.174 76.866C196.79 77.298 196.316 77.628 195.752 77.856C195.2 78.072 194.582 78.18 193.898 78.18C193.262 78.18 192.674 78.072 192.134 77.856C191.594 77.628 191.126 77.298 190.73 76.866C190.334 76.434 190.022 75.912 189.794 75.3C189.578 74.676 189.47 73.962 189.47 73.158C189.47 72.09 189.65 71.19 190.01 70.458C190.37 69.714 190.886 69.15 191.558 68.766C192.23 68.37 193.028 68.172 193.952 68.172C194.828 68.172 195.596 68.37 196.256 68.766C196.928 69.15 197.45 69.714 197.822 70.458C198.206 71.19 198.398 72.09 198.398 73.158ZM191.108 73.158C191.108 73.914 191.204 74.574 191.396 75.138C191.6 75.69 191.912 76.116 192.332 76.416C192.752 76.716 193.286 76.866 193.934 76.866C194.582 76.866 195.116 76.716 195.536 76.416C195.956 76.116 196.262 75.69 196.454 75.138C196.658 74.574 196.76 73.914 196.76 73.158C196.76 72.39 196.658 71.736 196.454 71.196C196.25 70.656 195.938 70.242 195.518 69.954C195.11 69.654 194.576 69.504 193.916 69.504C192.932 69.504 192.218 69.828 191.774 70.476C191.33 71.124 191.108 72.018 191.108 73.158ZM202.493 68.352V72.366H207.731V68.352H209.315V78H207.731V73.698H202.493V78H200.909V68.352H202.493ZM216.24 78.18C215.388 78.18 214.626 78.006 213.954 77.658C213.294 77.31 212.772 76.77 212.388 76.038C212.016 75.306 211.83 74.37 211.83 73.23C211.83 72.042 212.028 71.076 212.424 70.332C212.82 69.588 213.354 69.042 214.026 68.694C214.71 68.346 215.484 68.172 216.348 68.172C216.84 68.172 217.314 68.226 217.77 68.334C218.226 68.43 218.598 68.55 218.886 68.694L218.4 70.008C218.112 69.9 217.776 69.798 217.392 69.702C217.008 69.606 216.648 69.558 216.312 69.558C215.664 69.558 215.13 69.696 214.71 69.972C214.29 70.248 213.978 70.656 213.774 71.196C213.57 71.736 213.468 72.408 213.468 73.212C213.468 73.98 213.57 74.634 213.774 75.174C213.978 75.714 214.284 76.122 214.692 76.398C215.1 76.674 215.61 76.812 216.222 76.812C216.75 76.812 217.212 76.758 217.608 76.65C218.016 76.542 218.388 76.41 218.724 76.254V77.658C218.4 77.826 218.04 77.952 217.644 78.036C217.26 78.132 216.792 78.18 216.24 78.18ZM219.506 68.352H221.198L223.286 73.842C223.406 74.166 223.514 74.478 223.61 74.778C223.718 75.078 223.814 75.372 223.898 75.66C223.982 75.936 224.048 76.206 224.096 76.47H224.168C224.24 76.17 224.354 75.78 224.51 75.3C224.666 74.808 224.828 74.316 224.996 73.824L226.958 68.352H228.668L224.51 79.332C224.282 79.932 224.012 80.454 223.7 80.898C223.4 81.354 223.028 81.702 222.584 81.942C222.152 82.194 221.624 82.32 221 82.32C220.712 82.32 220.46 82.302 220.244 82.266C220.028 82.242 219.842 82.212 219.686 82.176V80.916C219.818 80.94 219.974 80.964 220.154 80.988C220.346 81.012 220.544 81.024 220.748 81.024C221.12 81.024 221.438 80.952 221.702 80.808C221.978 80.676 222.212 80.478 222.404 80.214C222.596 79.962 222.758 79.662 222.89 79.314L223.394 78.036L219.506 68.352ZM237.187 78H235.585V69.666H232.741C232.621 71.19 232.471 72.492 232.291 73.572C232.111 74.64 231.883 75.51 231.607 76.182C231.331 76.854 231.001 77.346 230.617 77.658C230.233 77.97 229.783 78.126 229.267 78.126C229.111 78.126 228.955 78.114 228.799 78.09C228.655 78.078 228.535 78.048 228.439 78V76.812C228.511 76.836 228.589 76.854 228.673 76.866C228.757 76.878 228.841 76.884 228.925 76.884C229.189 76.884 229.429 76.776 229.645 76.56C229.861 76.344 230.053 76.014 230.221 75.57C230.401 75.126 230.563 74.568 230.707 73.896C230.851 73.212 230.977 72.408 231.085 71.484C231.193 70.56 231.289 69.516 231.373 68.352H237.187V78ZM244.695 72.312C245.535 72.312 246.231 72.414 246.783 72.618C247.335 72.822 247.749 73.128 248.025 73.536C248.313 73.932 248.457 74.436 248.457 75.048C248.457 75.648 248.319 76.17 248.043 76.614C247.779 77.058 247.365 77.4 246.801 77.64C246.237 77.88 245.511 78 244.623 78H240.249V68.352H241.833V72.312H244.695ZM246.873 75.138C246.873 74.55 246.663 74.154 246.243 73.95C245.835 73.734 245.259 73.626 244.515 73.626H241.833V76.722H244.551C245.223 76.722 245.775 76.602 246.207 76.362C246.651 76.122 246.873 75.714 246.873 75.138ZM256.7 69.684H253.55V78H251.984V69.684H248.87V68.352H256.7V69.684ZM262.254 68.19C263.43 68.19 264.3 68.448 264.864 68.964C265.428 69.48 265.71 70.302 265.71 71.43V78H264.558L264.252 76.632H264.18C263.904 76.98 263.616 77.274 263.316 77.514C263.028 77.742 262.692 77.91 262.308 78.018C261.936 78.126 261.48 78.18 260.94 78.18C260.364 78.18 259.842 78.078 259.374 77.874C258.918 77.67 258.558 77.358 258.294 76.938C258.03 76.506 257.898 75.966 257.898 75.318C257.898 74.358 258.276 73.62 259.032 73.104C259.788 72.576 260.952 72.288 262.524 72.24L264.162 72.186V71.61C264.162 70.806 263.988 70.248 263.64 69.936C263.292 69.624 262.8 69.468 262.164 69.468C261.66 69.468 261.18 69.546 260.724 69.702C260.268 69.846 259.842 70.014 259.446 70.206L258.96 69.018C259.38 68.79 259.878 68.598 260.454 68.442C261.03 68.274 261.63 68.19 262.254 68.19ZM262.722 73.338C261.522 73.386 260.688 73.578 260.22 73.914C259.764 74.25 259.536 74.724 259.536 75.336C259.536 75.876 259.698 76.272 260.022 76.524C260.358 76.776 260.784 76.902 261.3 76.902C262.116 76.902 262.794 76.68 263.334 76.236C263.874 75.78 264.144 75.084 264.144 74.148V73.284L262.722 73.338ZM278.212 81.348H276.664V78H268.69V68.352H270.274V76.668H275.26V68.352H276.844V76.686H278.212V81.348ZM281.557 74.238C281.557 74.346 281.551 74.502 281.539 74.706C281.539 74.898 281.533 75.108 281.521 75.336C281.509 75.552 281.497 75.762 281.485 75.966C281.473 76.158 281.461 76.314 281.449 76.434L286.615 68.352H288.559V78H287.083V72.312C287.083 72.12 287.083 71.868 287.083 71.556C287.095 71.244 287.107 70.938 287.119 70.638C287.131 70.326 287.143 70.092 287.155 69.936L282.025 78H280.063V68.352H281.557V74.238ZM304.158 73.158C304.158 74.226 303.984 75.138 303.636 75.894C303.288 76.638 302.796 77.208 302.16 77.604C301.524 77.988 300.768 78.18 299.892 78.18C299.076 78.18 298.362 78.012 297.75 77.676C297.138 77.328 296.652 76.824 296.292 76.164C295.932 75.492 295.722 74.67 295.662 73.698H293.214V78H291.63V68.352H293.214V72.366H295.68C295.764 71.454 295.986 70.692 296.346 70.08C296.718 69.456 297.204 68.982 297.804 68.658C298.416 68.334 299.124 68.172 299.928 68.172C300.756 68.172 301.488 68.37 302.124 68.766C302.76 69.15 303.258 69.714 303.618 70.458C303.978 71.19 304.158 72.09 304.158 73.158ZM297.282 73.158C297.282 73.962 297.372 74.64 297.552 75.192C297.744 75.744 298.032 76.164 298.416 76.452C298.8 76.728 299.298 76.866 299.91 76.866C300.522 76.866 301.02 76.728 301.404 76.452C301.788 76.164 302.07 75.744 302.25 75.192C302.43 74.64 302.52 73.962 302.52 73.158C302.52 72.354 302.43 71.682 302.25 71.142C302.07 70.602 301.788 70.194 301.404 69.918C301.02 69.642 300.522 69.504 299.91 69.504C299.298 69.504 298.8 69.642 298.416 69.918C298.032 70.194 297.744 70.602 297.552 71.142C297.372 71.682 297.282 72.354 297.282 73.158Z" fill="white"/>
<path d="M70.7071 50.7071C71.0976 50.3166 71.0976 49.6834 70.7071 49.2929L64.3431 42.9289C63.9526 42.5384 63.3195 42.5384 62.9289 42.9289C62.5384 43.3195 62.5384 43.9526 62.9289 44.3431L68.5858 50L62.9289 55.6569C62.5384 56.0474 62.5384 56.6805 62.9289 57.0711C63.3195 57.4616 63.9526 57.4616 64.3431 57.0711L70.7071 50.7071ZM30 51H70V49H30V51Z" fill="white"/>
</svg>
